<mxfile host="Electron" agent="Mozilla/5.0 (Windows NT 10.0; Win64; x64) AppleWebKit/537.36 (KHTML, like Gecko) draw.io/25.0.2 Chrome/128.0.6613.186 Electron/32.2.5 Safari/537.36" version="25.0.2">
  <diagram name="Page-1" id="2SzWfhOFsnxvCo7K4J0q">
    <mxGraphModel dx="1050" dy="621" grid="1" gridSize="10" guides="1" tooltips="1" connect="1" arrows="1" fold="1" page="1" pageScale="1" pageWidth="1169" pageHeight="827" math="0" shadow="0">
      <root>
        <mxCell id="0" />
        <mxCell id="1" parent="0" />
        <mxCell id="sLEiHJOJmz-WyEaxbIG9-1" value="" style="shape=umlLifeline;perimeter=lifelinePerimeter;whiteSpace=wrap;html=1;container=1;dropTarget=0;collapsible=0;recursiveResize=0;outlineConnect=0;portConstraint=eastwest;newEdgeStyle={&quot;curved&quot;:0,&quot;rounded&quot;:0};participant=umlActor;" parent="1" vertex="1">
          <mxGeometry x="320" y="119" width="20" height="421" as="geometry" />
        </mxCell>
        <mxCell id="sLEiHJOJmz-WyEaxbIG9-2" value="&lt;span style=&quot;font-weight: normal;&quot;&gt;&lt;font style=&quot;font-size: 11px;&quot;&gt;User&lt;/font&gt;&lt;/span&gt;" style="text;align=center;fontStyle=1;verticalAlign=middle;spacingLeft=3;spacingRight=3;strokeColor=none;rotatable=0;points=[[0,0.5],[1,0.5]];portConstraint=eastwest;html=1;" parent="1" vertex="1">
          <mxGeometry x="315" y="94" width="30" height="26" as="geometry" />
        </mxCell>
        <mxCell id="sLEiHJOJmz-WyEaxbIG9-3" value="" style="html=1;points=[[0,0,0,0,5],[0,1,0,0,-5],[1,0,0,0,5],[1,1,0,0,-5]];perimeter=orthogonalPerimeter;outlineConnect=0;targetShapes=umlLifeline;portConstraint=eastwest;newEdgeStyle={&quot;curved&quot;:0,&quot;rounded&quot;:0};" parent="1" vertex="1">
          <mxGeometry x="465" y="190" width="10" height="350" as="geometry" />
        </mxCell>
        <mxCell id="sLEiHJOJmz-WyEaxbIG9-4" value="" style="shape=umlLifeline;perimeter=lifelinePerimeter;whiteSpace=wrap;html=1;container=1;dropTarget=0;collapsible=0;recursiveResize=0;outlineConnect=0;portConstraint=eastwest;newEdgeStyle={&quot;curved&quot;:0,&quot;rounded&quot;:0};participant=umlBoundary;" parent="1" vertex="1">
          <mxGeometry x="445" y="120" width="50" height="70" as="geometry" />
        </mxCell>
        <mxCell id="sLEiHJOJmz-WyEaxbIG9-5" value="&lt;span style=&quot;font-weight: normal;&quot;&gt;&lt;font style=&quot;font-size: 11px;&quot;&gt;Login Page&lt;/font&gt;&lt;/span&gt;" style="text;align=center;fontStyle=1;verticalAlign=middle;spacingLeft=3;spacingRight=3;strokeColor=none;rotatable=0;points=[[0,0.5],[1,0.5]];portConstraint=eastwest;html=1;" parent="1" vertex="1">
          <mxGeometry x="457" y="93" width="30" height="26" as="geometry" />
        </mxCell>
        <mxCell id="sLEiHJOJmz-WyEaxbIG9-12" value="&lt;font size=&quot;1&quot;&gt;enter email &amp;amp; pass&lt;/font&gt;" style="html=1;verticalAlign=bottom;endArrow=block;curved=0;rounded=0;entryX=0;entryY=0;entryDx=0;entryDy=5;entryPerimeter=0;" parent="1" source="sLEiHJOJmz-WyEaxbIG9-1" target="sLEiHJOJmz-WyEaxbIG9-3" edge="1">
          <mxGeometry x="-0.0365" y="5" relative="1" as="geometry">
            <mxPoint x="385" y="220" as="sourcePoint" />
            <mxPoint x="405" y="160" as="targetPoint" />
            <mxPoint as="offset" />
          </mxGeometry>
        </mxCell>
        <mxCell id="sLEiHJOJmz-WyEaxbIG9-14" value="" style="html=1;points=[[0,0,0,0,5],[0,1,0,0,-5],[1,0,0,0,5],[1,1,0,0,-5]];perimeter=orthogonalPerimeter;outlineConnect=0;targetShapes=umlLifeline;portConstraint=eastwest;newEdgeStyle={&quot;curved&quot;:0,&quot;rounded&quot;:0};" parent="1" vertex="1">
          <mxGeometry x="679" y="190" width="10" height="350" as="geometry" />
        </mxCell>
        <mxCell id="sLEiHJOJmz-WyEaxbIG9-15" value="&lt;span style=&quot;font-weight: normal;&quot;&gt;&lt;font style=&quot;font-size: 11px;&quot;&gt;User DB&lt;/font&gt;&lt;/span&gt;" style="text;align=center;fontStyle=1;verticalAlign=middle;spacingLeft=3;spacingRight=3;strokeColor=none;rotatable=0;points=[[0,0.5],[1,0.5]];portConstraint=eastwest;html=1;" parent="1" vertex="1">
          <mxGeometry x="671" y="93" width="30" height="26" as="geometry" />
        </mxCell>
        <mxCell id="sLEiHJOJmz-WyEaxbIG9-16" value="" style="shape=umlLifeline;perimeter=lifelinePerimeter;whiteSpace=wrap;html=1;container=1;dropTarget=0;collapsible=0;recursiveResize=0;outlineConnect=0;portConstraint=eastwest;newEdgeStyle={&quot;curved&quot;:0,&quot;rounded&quot;:0};participant=umlBoundary;" parent="1" vertex="1">
          <mxGeometry x="660" y="120" width="50" height="70" as="geometry" />
        </mxCell>
        <mxCell id="sLEiHJOJmz-WyEaxbIG9-17" value="" style="html=1;verticalAlign=bottom;endArrow=block;curved=0;rounded=0;" parent="1" target="sLEiHJOJmz-WyEaxbIG9-22" edge="1">
          <mxGeometry x="0.7716" relative="1" as="geometry">
            <mxPoint x="480" y="230" as="sourcePoint" />
            <mxPoint x="450" y="230" as="targetPoint" />
            <mxPoint as="offset" />
          </mxGeometry>
        </mxCell>
        <mxCell id="sLEiHJOJmz-WyEaxbIG9-32" value="read input data from User" style="edgeLabel;html=1;align=center;verticalAlign=middle;resizable=0;points=[];" parent="sLEiHJOJmz-WyEaxbIG9-17" vertex="1" connectable="0">
          <mxGeometry x="-0.6493" y="3" relative="1" as="geometry">
            <mxPoint x="43" y="-7" as="offset" />
          </mxGeometry>
        </mxCell>
        <mxCell id="sLEiHJOJmz-WyEaxbIG9-18" value="" style="html=1;verticalAlign=bottom;endArrow=block;curved=0;rounded=0;" parent="1" source="sLEiHJOJmz-WyEaxbIG9-22" edge="1">
          <mxGeometry x="0.6413" y="20" relative="1" as="geometry">
            <mxPoint x="469" y="260" as="sourcePoint" />
            <mxPoint x="690" y="260" as="targetPoint" />
            <mxPoint as="offset" />
          </mxGeometry>
        </mxCell>
        <mxCell id="sLEiHJOJmz-WyEaxbIG9-33" value="Search by email" style="edgeLabel;html=1;align=center;verticalAlign=middle;resizable=0;points=[];" parent="sLEiHJOJmz-WyEaxbIG9-18" vertex="1" connectable="0">
          <mxGeometry x="-0.1095" y="2" relative="1" as="geometry">
            <mxPoint as="offset" />
          </mxGeometry>
        </mxCell>
        <mxCell id="sLEiHJOJmz-WyEaxbIG9-21" value="alt" style="shape=umlFrame;whiteSpace=wrap;html=1;pointerEvents=0;" parent="1" vertex="1">
          <mxGeometry x="230" y="370" width="820" height="170" as="geometry" />
        </mxCell>
        <mxCell id="sLEiHJOJmz-WyEaxbIG9-22" value="" style="html=1;points=[[0,0,0,0,5],[0,1,0,0,-5],[1,0,0,0,5],[1,1,0,0,-5]];perimeter=orthogonalPerimeter;outlineConnect=0;targetShapes=umlLifeline;portConstraint=eastwest;newEdgeStyle={&quot;curved&quot;:0,&quot;rounded&quot;:0};" parent="1" vertex="1">
          <mxGeometry x="830" y="190" width="10" height="350" as="geometry" />
        </mxCell>
        <mxCell id="sLEiHJOJmz-WyEaxbIG9-23" value="" style="shape=umlLifeline;perimeter=lifelinePerimeter;whiteSpace=wrap;html=1;container=1;dropTarget=0;collapsible=0;recursiveResize=0;outlineConnect=0;portConstraint=eastwest;newEdgeStyle={&quot;curved&quot;:0,&quot;rounded&quot;:0};participant=umlBoundary;" parent="1" vertex="1">
          <mxGeometry x="810" y="120" width="50" height="70" as="geometry" />
        </mxCell>
        <mxCell id="sLEiHJOJmz-WyEaxbIG9-24" value="&lt;span style=&quot;font-weight: normal;&quot;&gt;&lt;font style=&quot;font-size: 11px;&quot;&gt;UserSignup Singeltone&lt;/font&gt;&lt;/span&gt;" style="text;align=center;fontStyle=1;verticalAlign=middle;spacingLeft=3;spacingRight=3;strokeColor=none;rotatable=0;points=[[0,0.5],[1,0.5]];portConstraint=eastwest;html=1;" parent="1" vertex="1">
          <mxGeometry x="820" y="93" width="30" height="26" as="geometry" />
        </mxCell>
        <mxCell id="sLEiHJOJmz-WyEaxbIG9-25" value="&lt;span style=&quot;font-weight: normal;&quot;&gt;&lt;font style=&quot;font-size: 11px;&quot;&gt;[&lt;/font&gt;&lt;/span&gt;&lt;span style=&quot;font-size: 11px; font-weight: 400; background-color: rgb(24, 20, 29);&quot;&gt;Successfully&amp;nbsp;&lt;/span&gt;&lt;span style=&quot;font-size: 11px; font-weight: 400; background-color: rgb(24, 20, 29);&quot;&gt;Login&amp;nbsp;&lt;/span&gt;&lt;span style=&quot;font-weight: normal;&quot;&gt;&lt;font style=&quot;font-size: 11px;&quot;&gt;]&lt;/font&gt;&lt;/span&gt;" style="text;align=center;fontStyle=1;verticalAlign=middle;spacingLeft=3;spacingRight=3;strokeColor=none;rotatable=0;points=[[0,0.5],[1,0.5]];portConstraint=eastwest;html=1;" parent="1" vertex="1">
          <mxGeometry x="380" y="380" width="30" height="26" as="geometry" />
        </mxCell>
        <mxCell id="sLEiHJOJmz-WyEaxbIG9-27" value="" style="html=1;verticalAlign=bottom;endArrow=none;dashed=1;endSize=8;curved=0;rounded=0;endFill=0;entryX=1.003;entryY=0.664;entryDx=0;entryDy=0;entryPerimeter=0;" parent="1" target="sLEiHJOJmz-WyEaxbIG9-21" edge="1">
          <mxGeometry relative="1" as="geometry">
            <mxPoint x="280" y="450" as="targetPoint" />
            <mxPoint x="200" y="483" as="sourcePoint" />
          </mxGeometry>
        </mxCell>
        <mxCell id="sLEiHJOJmz-WyEaxbIG9-28" value="return A user Obj." style="html=1;verticalAlign=bottom;endArrow=open;dashed=1;endSize=8;curved=0;rounded=0;" parent="1" target="sLEiHJOJmz-WyEaxbIG9-22" edge="1">
          <mxGeometry y="-10" relative="1" as="geometry">
            <mxPoint x="449" y="290" as="targetPoint" />
            <mxPoint x="690" y="290" as="sourcePoint" />
            <mxPoint as="offset" />
          </mxGeometry>
        </mxCell>
        <mxCell id="sLEiHJOJmz-WyEaxbIG9-29" value="" style="html=1;points=[[0,0,0,0,5],[0,1,0,0,-5],[1,0,0,0,5],[1,1,0,0,-5]];perimeter=orthogonalPerimeter;outlineConnect=0;targetShapes=umlLifeline;portConstraint=eastwest;newEdgeStyle={&quot;curved&quot;:0,&quot;rounded&quot;:0};" parent="1" vertex="1">
          <mxGeometry x="990" y="190" width="10" height="350" as="geometry" />
        </mxCell>
        <mxCell id="sLEiHJOJmz-WyEaxbIG9-30" value="" style="shape=umlLifeline;perimeter=lifelinePerimeter;whiteSpace=wrap;html=1;container=1;dropTarget=0;collapsible=0;recursiveResize=0;outlineConnect=0;portConstraint=eastwest;newEdgeStyle={&quot;curved&quot;:0,&quot;rounded&quot;:0};participant=umlBoundary;" parent="1" vertex="1">
          <mxGeometry x="970" y="120" width="50" height="70" as="geometry" />
        </mxCell>
        <mxCell id="sLEiHJOJmz-WyEaxbIG9-31" value="&lt;span style=&quot;font-weight: normal;&quot;&gt;&lt;font style=&quot;font-size: 11px;&quot;&gt;News Feed pg.&lt;/font&gt;&lt;/span&gt;" style="text;align=center;fontStyle=1;verticalAlign=middle;spacingLeft=3;spacingRight=3;strokeColor=none;rotatable=0;points=[[0,0.5],[1,0.5]];portConstraint=eastwest;html=1;" parent="1" vertex="1">
          <mxGeometry x="980" y="93" width="30" height="26" as="geometry" />
        </mxCell>
        <mxCell id="sLEiHJOJmz-WyEaxbIG9-36" value="" style="html=1;verticalAlign=bottom;endArrow=block;curved=0;rounded=0;" parent="1" target="sLEiHJOJmz-WyEaxbIG9-22" edge="1">
          <mxGeometry x="0.7716" relative="1" as="geometry">
            <mxPoint x="840" y="320" as="sourcePoint" />
            <mxPoint x="860" y="360" as="targetPoint" />
            <mxPoint as="offset" />
            <Array as="points">
              <mxPoint x="910" y="320" />
              <mxPoint x="910" y="350" />
            </Array>
          </mxGeometry>
        </mxCell>
        <mxCell id="sLEiHJOJmz-WyEaxbIG9-37" value="Check User &amp;amp; email" style="edgeLabel;html=1;align=center;verticalAlign=middle;resizable=0;points=[];" parent="sLEiHJOJmz-WyEaxbIG9-36" vertex="1" connectable="0">
          <mxGeometry x="-0.6493" y="3" relative="1" as="geometry">
            <mxPoint x="30" y="-7" as="offset" />
          </mxGeometry>
        </mxCell>
        <mxCell id="sLEiHJOJmz-WyEaxbIG9-38" value="" style="html=1;verticalAlign=bottom;endArrow=block;curved=0;rounded=0;" parent="1" edge="1">
          <mxGeometry x="0.6413" y="20" relative="1" as="geometry">
            <mxPoint x="829" y="430" as="sourcePoint" />
            <mxPoint x="689" y="430" as="targetPoint" />
            <mxPoint as="offset" />
          </mxGeometry>
        </mxCell>
        <mxCell id="sLEiHJOJmz-WyEaxbIG9-39" value="User set status&lt;div&gt;&quot;online&quot;&lt;/div&gt;" style="edgeLabel;html=1;align=center;verticalAlign=middle;resizable=0;points=[];" parent="sLEiHJOJmz-WyEaxbIG9-38" vertex="1" connectable="0">
          <mxGeometry x="-0.1095" y="2" relative="1" as="geometry">
            <mxPoint x="-6" y="-2" as="offset" />
          </mxGeometry>
        </mxCell>
        <mxCell id="sLEiHJOJmz-WyEaxbIG9-41" value="" style="html=1;verticalAlign=bottom;endArrow=block;curved=0;rounded=0;" parent="1" edge="1">
          <mxGeometry x="0.6413" y="20" relative="1" as="geometry">
            <mxPoint x="830" y="396" as="sourcePoint" />
            <mxPoint x="475" y="396" as="targetPoint" />
            <mxPoint as="offset" />
          </mxGeometry>
        </mxCell>
        <mxCell id="sLEiHJOJmz-WyEaxbIG9-42" value="Login Successfully" style="edgeLabel;html=1;align=center;verticalAlign=middle;resizable=0;points=[];" parent="sLEiHJOJmz-WyEaxbIG9-41" vertex="1" connectable="0">
          <mxGeometry x="-0.1095" y="2" relative="1" as="geometry">
            <mxPoint x="-112" y="-2" as="offset" />
          </mxGeometry>
        </mxCell>
        <mxCell id="sLEiHJOJmz-WyEaxbIG9-45" value="" style="html=1;verticalAlign=bottom;endArrow=block;curved=0;rounded=0;" parent="1" target="sLEiHJOJmz-WyEaxbIG9-29" edge="1">
          <mxGeometry x="0.7716" relative="1" as="geometry">
            <mxPoint x="475" y="450" as="sourcePoint" />
            <mxPoint x="825" y="450" as="targetPoint" />
            <mxPoint as="offset" />
          </mxGeometry>
        </mxCell>
        <mxCell id="sLEiHJOJmz-WyEaxbIG9-46" value="redirected to News Feed pg" style="edgeLabel;html=1;align=center;verticalAlign=middle;resizable=0;points=[];" parent="sLEiHJOJmz-WyEaxbIG9-45" vertex="1" connectable="0">
          <mxGeometry x="-0.6493" y="3" relative="1" as="geometry">
            <mxPoint x="-5" y="-7" as="offset" />
          </mxGeometry>
        </mxCell>
        <mxCell id="sLEiHJOJmz-WyEaxbIG9-47" value="" style="html=1;verticalAlign=bottom;endArrow=block;curved=0;rounded=0;" parent="1" edge="1">
          <mxGeometry x="0.6413" y="20" relative="1" as="geometry">
            <mxPoint x="830" y="510" as="sourcePoint" />
            <mxPoint x="475" y="510" as="targetPoint" />
            <mxPoint as="offset" />
          </mxGeometry>
        </mxCell>
        <mxCell id="sLEiHJOJmz-WyEaxbIG9-48" value="Faild to Login" style="edgeLabel;html=1;align=center;verticalAlign=middle;resizable=0;points=[];" parent="sLEiHJOJmz-WyEaxbIG9-47" vertex="1" connectable="0">
          <mxGeometry x="-0.1095" y="2" relative="1" as="geometry">
            <mxPoint x="-112" y="-2" as="offset" />
          </mxGeometry>
        </mxCell>
        <mxCell id="sLEiHJOJmz-WyEaxbIG9-49" value="&lt;span style=&quot;font-size: 11px; font-weight: 400;&quot;&gt;[invalid Constrains]&lt;/span&gt;" style="text;align=center;fontStyle=1;verticalAlign=middle;spacingLeft=3;spacingRight=3;strokeColor=none;rotatable=0;points=[[0,0.5],[1,0.5]];portConstraint=eastwest;html=1;" parent="1" vertex="1">
          <mxGeometry x="380" y="480" width="30" height="26" as="geometry" />
        </mxCell>
      </root>
    </mxGraphModel>
  </diagram>
</mxfile>
